# xmcd
#
# Track frame offsets: 
#        150
#        16650
#        36375
#        51675
#        69825
#        84037
#        108112
#        121050
#        137400
#        152627
#        165040
#        187015
#
# Disc length: 2623 seconds
#
# Revision: 0
# Processed by: cddbd v1.4PL0 Copyright (c) Steve Scherf et al.
# Submitted via: ExactAudioCopy v0.90b3
#
DISCID=850a3d0c
DTITLE=David Olney - Eye Of The Storm
DYEAR=1996
DGENRE=Country
TTITLE0=Saturday Night And Sunday Morning
TTITLE1=I Keep My Fingers Crossed
TTITLE2=Theresa Maria
TTITLE3=A Dangerous Man
TTITLE4=If It Wasn't For The Wind
TTITLE5=Steal My Thunder
TTITLE6=Who Knows Better Than I
TTITLE7=Titanic
TTITLE8=Queen Anne's Lace
TTITLE9=My Baby's Gone
TTITLE10=Eye Of The Storm
TTITLE11=Ain't It That Way
EXTD=
EXTT0=
EXTT1=
EXTT2=
EXTT3=
EXTT4=
EXTT5=
EXTT6=
EXTT7=
EXTT8=
EXTT9=
EXTT10=
EXTT11=
PLAYORDER=
